PathFileType	4	(X/Y/Z)	CP4_315.1s.trc																												
DataRate	CameraRate	NumFrames	NumMarkers	Units	OrigDataRate	OrigDataStartFrame	OrigNumFrames																								
30	30	25	10	mm	30	5909	9454																								
Frame#	Time	pelvis_center			manubrium			l_acromion			l_humerus_epicondyle			l_radius_styloid			l_center_hand			r_acromion			r_humerus_epicondyle			r_radius_styloid			r_center_hand		
		X1	Y1	Z1	X2	Y2	Z2	X3	Y3	Z3	X4	Y4	Z4	X5	Y5	Z5	X6	Y6	Z6	X7	Y7	Z7	X8	Y8	Z8	X9	Y9	Z9	X10	Y10	Z10
																															
5909	196.9333333	-2367.000595	-139.996102	-206.9871047	-2485.8336	128.0000235	-212.0000046	-2456.00002	19.99974508	-367.000003	-2259.868406	-48.90039427	-375.034517	-2008.850481	-88.62162763	-339.6656689	-1876.16153	-106.2769499	-306.8611369	-2381.967963	56.19204624	-89.98754207	-2156.394185	-50.56429284	-143.5342406	-2001.777795	-107.1109383	-326.3204757	-1949.053236	-121.6635968	-426.3459674
5910	196.9666667	-2367.003209	-140.0080126	-207.1817256	-2485.478566	128.0000538	-212.0000012	-2456.000049	19.99958744	-367.0000044	-2258.379278	-47.40453491	-373.3654342	-2007.03938	-87.50978135	-337.3266321	-1874.436477	-105.8807918	-306.5287524	-2381.432913	56.54366787	-90.18192678	-2155.360998	-49.92732391	-143.8593641	-1998.836852	-106.4541347	-325.5937788	-1937.818735	-117.0220104	-410.9852204
5911	197	-2367.003017	-140.035019	-207.538202	-2485.136646	127.9999893	-211.9999995	-2455.999989	20.00052331	-367.000001	-2256.833278	-45.70802165	-371.7947252	-2005.296864	-86.12252327	-334.9484421	-1871.366803	-104.1413173	-305.9891967	-2380.935663	56.82945735	-90.53821665	-2154.407417	-49.42443013	-144.0210266	-1993.647851	-105.2135937	-322.8349414	-1920.165172	-110.2481116	-389.2683187
5912	197.0333333	-2366.989303	-140.0251459	-207.8709038	-2484.973553	127.9997253	-211.9999996	-2455.999726	20.00309444	-366.9999995	-2255.309561	-43.80573769	-370.2817813	-2003.574024	-84.09397356	-332.7750599	-1865.770761	-99.93647704	-305.1647636	-2380.48144	57.0016047	-90.87112999	-2153.6092	-48.95599094	-144.0347986	-1986.170272	-103.1421548	-317.8834968	-1901.359947	-102.7746068	-367.4190628
5913	197.0666667	-2366.964406	-139.8686108	-208.0250287	-2484.975155	127.9995421	-211.9999999	-2455.999541	20.00316713	-366.9999996	-2254.031738	-41.9610801	-369.0030169	-2002.118603	-81.58132081	-330.9816168	-1858.040863	-93.52035132	-304.1695406	-2380.122888	57.19669294	-91.02546793	-2152.964419	-48.47775541	-144.0059273	-1977.473305	-100.4339054	-311.5656865	-1885.275914	-95.83186614	-349.8438956
5914	197.1	-2366.987458	-139.5086255	-208.0351799	-2485.030022	128.0005367	-212.0000001	-2456.000532	19.99017395	-367	-2253.217371	-40.57318363	-368.246078	-2001.396838	-79.08932223	-329.6192601	-1849.982115	-86.43071312	-303.1987821	-2379.823438	57.52311918	-91.03464587	-2152.292791	-47.98887827	-143.9926698	-1968.933239	-97.61371791	-304.9733061	-1872.509373	-89.73297913	-336.8795094
5915	197.1333333	-2367.158103	-139.0232326	-208.0111605	-2485.020492	128.0033496	-212	-2456.003348	19.96528305	-367.0000001	-2252.803514	-39.82676853	-368.0164845	-2001.440494	-76.90079517	-328.4978773	-1843.255535	-80.19675523	-302.1637844	-2379.501039	57.85247196	-91.00781558	-2151.481486	-47.49382707	-144.0053961	-1961.345881	-95.05170385	-298.6823023	-1862.231637	-84.27134973	-327.1044291
5916	197.1666667	-2367.482717	-138.5224002	-207.9996827	-2484.836489	128.0035801	-212	-2456.003602	19.98466512	-367	-2252.462321	-39.36059411	-367.8539558	-2001.632498	-74.92870309	-327.1783467	-1838.44876	-75.52249262	-300.8028346	-2379.161269	58.00694787	-90.99610386	-2150.659025	-46.99213132	-144.0347353	-1954.850199	-92.70571087	-292.8418383	-1853.751181	-79.33561362	-319.4205725
5917	197.2	-2367.847154	-137.9923948	-207.9866809	-2484.485646	127.9896506	-212	-2455.989701	20.14835526	-367	-2251.92042	-38.46579	-367.2040231	-2001.398464	-72.9509219	-325.3413374	-1835.204554	-72.27265883	-299.1480135	-2378.822745	57.99845853	-90.99702986	-2149.954697	-46.48540433	-144.0235399	-1949.268844	-90.38757777	-287.5321509	-1846.694039	-75.03381061	-313.2607418
5918	197.2333333	-2368.196201	-137.3158155	-207.9618525	-2484.1586	127.9621868	-212	-2455.962169	20.46950635	-367	-2251.206387	-36.90408952	-365.9707188	-2000.865463	-70.78440458	-323.1142902	-1832.850875	-69.87801771	-297.4724885	-2378.473063	57.99589023	-90.99966538	-2149.305622	-45.9781732	-143.8642164	-1944.334176	-88.09217677	-282.7017416	-1840.829437	-71.39673305	-308.1891308
5919	197.2666667	-2368.546355	-136.4825194	-207.9819528	-2484.018229	127.9814948	-212	-2455.981205	20.83232731	-367	-2250.751571	-35.32189437	-364.6247789	-2000.772481	-68.41711021	-320.8976237	-1830.983271	-67.86105915	-295.9167499	-2378.181161	58.16318141	-91.00045795	-2148.642456	-45.47679493	-143.5050249	-1939.877071	-85.92157434	-278.2072469	-1836.065265	-68.25895006	-303.9486906
5920	197.3	-2368.829637	-135.6675932	-208.1584194	-2483.978525	128.1581847	-212	-2456.157727	21.16832412	-367	-2251.174013	-34.58668477	-363.7235319	-2001.835909	-66.03831142	-319.0058248	-1829.510737	-66.03703689	-294.4357429	-2377.995545	58.4974878	-91.00023475	-2147.98299	-44.98391348	-143.0169464	-1935.882624	-83.86714722	-274.0826861	-1832.320431	-65.46750011	-300.5384786
5921	197.3333333	-2369.001124	-134.9736549	-208.5042431	-2483.817329	128.504246	-212	-2456.504864	21.50694434	-367	-2252.728976	-35.00393312	-363.3714024	-2004.097227	-63.85881727	-317.5386807	-1828.384523	-64.36399795	-292.9582581	-2377.79245	58.81380349	-90.99999707	-2147.307213	-44.49184607	-142.4988079	-1932.377919	-81.87465857	-270.4450685	-1829.354722	-62.99109843	-297.8982205
5922	197.3666667	-2369.196439	-134.2664674	-208.8476409	-2483.478855	128.8476879	-212	-2456.851189	21.84231303	-367	-2255.022371	-36.27475913	-363.2640635	-2006.86258	-62.00791615	-316.4096534	-1827.525313	-62.86163364	-291.4720923	-2377.480498	59.00356596	-90.99995295	-2146.614756	-43.99309997	-141.9882745	-1929.41766	-80.03627047	-267.2480134	-1826.931214	-60.83242562	-295.7828016
5923	197.4	-2369.523147	-133.4397327	-209.0198846	-2483.154135	129.0199014	-212	-2457.023355	22.16363087	-367	-2257.33817	-37.79249661	-363.1604304	-2009.36826	-60.54565535	-315.4343973	-1826.902928	-61.65364867	-289.9940585	-2377.182596	59.19850819	-90.99998319	-2145.991354	-43.48923289	-141.4828861	-1927.073309	-78.52626248	-264.3914685	-1824.984151	-58.99716706	-294.0104934
5924	197.4333333	-2369.852796	-132.6554321	-209.0371822	-2483.015853	129.0371792	-212	-2457.025814	22.50095443	-367	-2259.165627	-38.95125566	-363.0257283	-2011.35716	-59.39671121	-314.4686912	-1826.554312	-60.86930333	-288.4810894	-2376.997053	59.51722285	-91.000003	-2145.467581	-42.98149543	-140.9788033	-1925.303867	-77.38973485	-261.9453423	-1823.496379	-57.50616891	-292.5534144
5925	197.4666667	-2370.007421	-132.120904	-209.0098461	-2482.982598	129.0098417	-212	-2456.97076	22.84205164	-367	-2260.351785	-39.4707102	-362.821641	-2012.888246	-58.39097923	-313.4759826	-1826.550117	-60.53035197	-286.817379	-2376.797998	59.83322099	-91.0000044	-2144.982676	-42.46548753	-140.4796418	-1923.979503	-76.53973761	-260.1123445	-1822.386298	-56.3642952	-291.371848
5926	197.5	-2369.997897	-131.7796325	-208.9963576	-2482.832195	128.9963565	-212	-2456.980644	23.17840374	-367	-2260.990619	-39.48486194	-362.5237051	-2013.978875	-57.46579664	-312.4753224	-1826.954323	-60.57838985	-284.9305902	-2376.475987	59.97831841	-91.00000104	-2144.490133	-41.94613441	-139.9847315	-1923.018301	-75.88624555	-258.9727678	-1821.552999	-55.57277116	-290.3860386
5927	197.5333333	-2369.992487	-131.4529845	-208.996726	-2482.496148	128.9967265	-212	-2457.166657	23.52703605	-367	-2261.322901	-39.29507544	-362.214983	-2014.659097	-56.68848192	-311.4736494	-1827.768185	-60.88730207	-282.9099265	-2376.162286	60.01910336	-90.99999952	-2143.983869	-41.47810504	-139.4805507	-1922.379754	-75.42635668	-258.3569593	-1820.91391	-55.09962114	-289.6149759
5928	197.5666667	-2370.159614	-131.1490421	-208.9995034	-2482.151852	128.9995038	-212	-2457.520734	23.81767146	-367	-2261.455117	-38.96635595	-361.8783687	-2014.980845	-56.00371453	-310.461292	-1828.719526	-61.24753266	-281.0044654	-2376.021078	60.17292542	-90.99999962	-2143.466188	-41.15992671	-138.9684965	-1922.05761	-75.26848851	-258.0443608	-1820.421509	-54.78282671	-289.1165098
5929	197.6	-2370.508118	-130.9866128	-209.0004576	-2481.990894	129.0004576	-212	-2457.859889	24.00049511	-367	-2261.203208	-38.19399797	-361.3103308	-2014.884676	-55.13617096	-309.4384459	-1829.091593	-61.33608239	-279.4902459	-2375.979533	60.50847553	-90.99999995	-2142.945928	-40.98921432	-138.5004828	-1922.094879	-75.45030496	-257.9661521	-1820.10071	-54.45257769	-288.7859048
5930	197.6333333	-2370.852076	-130.9628081	-209.0002663	-2482.000449	129.0002663	-212	-2458.022955	24.2046949	-367	-2260.488177	-36.76649805	-360.4485896	-2014.350605	-53.96337372	-308.4488395	-1828.179793	-60.79311931	-278.5154326	-2375.820486	60.8526588	-91.00000006	-2142.477894	-40.79355745	-138.1281956	-1922.463024	-75.80378706	-258.1348934	-1819.985746	-54.14467524	-288.4559026
5931	197.6666667	-2371.021506	-130.9864348	-209.0000088	-2482.008871	129.0000088	-212	-2458.035918	24.53408614	-367	-2259.645414	-35.07882248	-359.584748	-2013.63433	-52.78796102	-307.5884544	-1826.033903	-59.52162961	-278.0527616	-2375.482671	61.02409789	-91.00000003	-2142.159893	-40.46801931	-137.8051219	-1922.995387	-76.17792348	-258.4776408	-1820.009217	-53.98499041	-288.1485337
5932	197.7	-2371.036913	-131.0132871	-208.9999511	-2481.84492	128.9999511	-212	-2458.008799	24.85967735	-367	-2259.093371	-33.88264548	-359.110091	-2013.117312	-51.94798286	-306.9207521	-1823.460257	-57.8300441	-277.9394582	-2375.143235	61.02676097	-91	-2141.989242	-40.15473955	-137.4665032	-1923.496577	-76.55530078	-258.8469196	-1820.009694	-53.96610262	-287.9865056
5933	197.7333333	-2371.009429	-131.0408337	-208.9999802	-2481.495706	128.9999802	-212	-2457.99626	25.00835315	-367	-2258.916142	-33.48727515	-359.1214096	-2012.941848	-51.40560452	-306.43312	-1821.331265	-56.22370149	-277.9672963	-2374.974471	60.97192399	-90.99999999	-2141.793549	-40.01789465	-137.1790998	-1923.874928	-76.86755298	-259.1950615	-1819.833693	-53.99037256	-287.9659293
